<svg width="45" height="45" viewBox="0 0 45 45" fill="none" xmlns="http://www.w3.org/2000/svg">
<g clip-path="url(#clip0_3329_625)">
<path d="M12.4797 1.55176H1.48584C0.665235 1.55176 0 2.21699 0 3.0376V12.4797C0 13.3003 0.665235 13.9656 1.48584 13.9656H12.4797C13.3003 13.9656 13.9655 13.3003 13.9655 12.4797V3.0376C13.9655 2.21699 13.3003 1.55176 12.4797 1.55176Z" fill="white" fill-opacity="0.75"/>
<path d="M27.9972 1.55176H17.0034C16.1828 1.55176 15.5176 2.21699 15.5176 3.0376V12.4797C15.5176 13.3003 16.1828 13.9656 17.0034 13.9656H27.9972C28.8179 13.9656 29.4831 13.3003 29.4831 12.4797V3.0376C29.4831 2.21699 28.8179 1.55176 27.9972 1.55176Z" fill="white" fill-opacity="0.75"/>
<path d="M43.5148 1.55176H32.521C31.7004 1.55176 31.0352 2.21699 31.0352 3.0376V12.4797C31.0352 13.3003 31.7004 13.9656 32.521 13.9656H43.5148C44.3354 13.9656 45.0007 13.3003 45.0007 12.4797V3.0376C45.0007 2.21699 44.3354 1.55176 43.5148 1.55176Z" fill="white" fill-opacity="0.75"/>
<path d="M12.4797 15.5176H1.48584C0.665235 15.5176 0 16.1828 0 17.0034V26.4455C0 27.2661 0.665235 27.9314 1.48584 27.9314H12.4797C13.3003 27.9314 13.9655 27.2661 13.9655 26.4455V17.0034C13.9655 16.1828 13.3003 15.5176 12.4797 15.5176Z" fill="white" fill-opacity="0.75"/>
<path d="M27.9972 15.5176H17.0034C16.1828 15.5176 15.5176 16.1828 15.5176 17.0034V26.4455C15.5176 27.2661 16.1828 27.9314 17.0034 27.9314H27.9972C28.8179 27.9314 29.4831 27.2661 29.4831 26.4455V17.0034C29.4831 16.1828 28.8179 15.5176 27.9972 15.5176Z" fill="white" fill-opacity="0.75"/>
<path d="M43.5148 15.5176H32.521C31.7004 15.5176 31.0352 16.1828 31.0352 17.0034V26.4455C31.0352 27.2661 31.7004 27.9314 32.521 27.9314H43.5148C44.3354 27.9314 45.0007 27.2661 45.0007 26.4455V17.0034C45.0007 16.1828 44.3354 15.5176 43.5148 15.5176Z" fill="white" fill-opacity="0.75"/>
<path d="M12.4797 29.4824H1.48584C0.665235 29.4824 0 30.1477 0 30.9683V40.4104C0 41.231 0.665235 41.8962 1.48584 41.8962H12.4797C13.3003 41.8962 13.9655 41.231 13.9655 40.4104V30.9683C13.9655 30.1477 13.3003 29.4824 12.4797 29.4824Z" fill="white" fill-opacity="0.75"/>
<path d="M27.9972 29.4824H17.0034C16.1828 29.4824 15.5176 30.1477 15.5176 30.9683V40.4104C15.5176 41.231 16.1828 41.8962 17.0034 41.8962H27.9972C28.8179 41.8962 29.4831 41.231 29.4831 40.4104V30.9683C29.4831 30.1477 28.8179 29.4824 27.9972 29.4824Z" fill="white" fill-opacity="0.75"/>
<path d="M43.5148 29.4824H32.521C31.7004 29.4824 31.0352 30.1477 31.0352 30.9683V40.4104C31.0352 41.231 31.7004 41.8962 32.521 41.8962H43.5148C44.3354 41.8962 45.0007 41.231 45.0007 40.4104V30.9683C45.0007 30.1477 44.3354 29.4824 43.5148 29.4824Z" fill="white" fill-opacity="0.75"/>
</g>
<defs>
<clipPath id="clip0_3329_625">
<rect width="45" height="45" fill="white"/>
</clipPath>
</defs>
</svg>
