<svg width="20" height="21" viewBox="0 0 20 21" fill="none" xmlns="http://www.w3.org/2000/svg">
<path d="M7.04785 21.0001C6.61326 20.905 6.17868 20.8322 5.75091 20.7148C4.50922 20.3822 3.36949 19.7066 2.44417 18.7547C2.36953 18.6743 2.28125 18.6157 2.28125 18.4767V16.7578C5.72382 19.2886 9.14594 19.4422 12.6427 16.9115V18.8351C12.6427 19.003 12.5137 19.0618 12.4254 19.15C11.2904 20.1609 9.89918 20.7802 8.43287 20.9273C8.34795 20.9184 8.26308 20.9445 8.19531 21.0004L7.04785 21.0001Z" fill="white" fill-opacity="0.5"/>
<path d="M19.9829 11.4322C19.9829 12.171 20.01 12.4269 19.9966 12.7781C19.9354 13.4289 19.7998 13.5242 19.3176 13.8534C17.6697 15.004 15.6698 15.416 13.744 15.0017C13.5404 14.9579 13.4384 14.8701 13.4453 14.6213C13.4583 14.0727 13.4518 13.5242 13.4258 12.9757C13.4121 12.7269 13.4665 12.6685 13.7041 12.7124C15.5176 13.059 17.3863 12.6958 18.9731 11.6884C19.1824 11.5744 19.3786 11.4345 19.5577 11.2714C19.6392 11.1984 19.7614 11.1325 19.9865 10.9355L19.9829 11.4322Z" fill="white" fill-opacity="0.5"/>
<path d="M0.0472254 3.92803C0.0472254 3.57702 0.0667128 3.21845 0.0404038 2.86744C0.0164203 2.5348 0.0755634 2.2013 0.211686 1.9016C0.347809 1.6019 0.555944 1.34694 0.814471 1.1632C1.55502 0.556074 2.43043 0.314652 3.31986 0.16119C4.89423 -0.121439 6.50683 -0.0316086 8.04573 0.424446C8.62501 0.575602 9.16705 0.860069 9.63459 1.2583C9.86921 1.44616 10.0541 1.69693 10.1708 1.98564C10.2875 2.27436 10.332 2.59096 10.2999 2.90397C10.2705 3.48618 10.2682 4.06962 10.2931 4.65208C10.3004 4.72295 10.2865 4.79447 10.2535 4.85629C10.2206 4.91811 10.1702 4.96702 10.1097 4.99595C9.42393 5.41288 8.92835 5.99797 8.77205 6.85386C8.76928 6.91597 8.7469 6.97519 8.70863 7.02172C8.67035 7.06826 8.61847 7.09932 8.56158 7.10977C6.42276 7.70955 4.27712 7.87771 2.1383 7.11712C1.38488 6.85884 0.714227 6.3772 0.203131 5.72736C0.0900632 5.59076 0.0293895 5.413 0.033389 5.23003C0.053072 4.79841 0.0472254 4.35965 0.0472254 3.92803ZM5.06502 0.453626C4.28287 0.436668 3.50203 0.530187 2.74243 0.73179C2.02956 0.921989 1.33013 1.17055 0.80726 1.76319C0.325125 2.3044 0.339547 2.88969 0.82675 3.42355C1.1746 3.77849 1.59583 4.03919 2.05567 4.18415C3.87948 4.82989 5.83578 4.90595 7.69806 4.40352C8.37703 4.22802 9.02208 3.96476 9.51766 3.40886C10.0473 2.82377 10.0132 2.15807 9.4362 1.62442C9.09005 1.32062 8.69382 1.08986 8.26828 0.944241C7.23322 0.589955 6.15054 0.42414 5.06483 0.453626H5.06502Z" fill="white" fill-opacity="0.5"/>
<path d="M9.54665 8.36742C9.54665 8.06764 9.56614 7.76765 9.53983 7.475C9.5148 7.16575 9.56485 6.8548 9.68508 6.57268C9.80531 6.29057 9.99159 6.04699 10.2256 5.86586C10.8978 5.28078 11.6991 5.01017 12.5274 4.8565C14.3247 4.47943 16.1803 4.58236 17.9322 5.15628C18.1526 5.2337 18.3681 5.32655 18.5772 5.43424C19.5279 5.90239 20.0507 6.64849 19.9691 7.83336C19.9147 8.61599 19.9147 9.41331 19.9013 10.1959C19.8992 10.2747 19.8804 10.352 19.8463 10.4217C19.8122 10.4915 19.7636 10.5518 19.7044 10.5982C19.1289 11.1268 18.4517 11.5115 17.7217 11.7247C16.3772 12.2019 14.9539 12.3664 13.546 12.2075C13.4005 12.1872 13.2673 12.1089 13.1726 11.9881C12.2623 10.8878 11.0529 10.125 9.71659 9.80841C9.56068 9.77188 9.5332 9.71331 9.5332 9.56699C9.55269 9.16475 9.54685 8.76231 9.54685 8.36742H9.54665ZM14.8293 9.3476C15.6361 9.35886 16.4412 9.26304 17.2263 9.06231C17.8985 8.8868 18.5504 8.64538 19.08 8.13335C19.698 7.52622 19.6842 6.84604 19.0461 6.26809C18.715 5.97962 18.3376 5.75904 17.9326 5.6173C17.0892 5.30727 16.2088 5.12987 15.3184 5.09058C13.9543 5.01017 12.6024 5.13445 11.3191 5.69036C10.8419 5.86124 10.4262 6.18862 10.1303 6.62666C9.9909 6.818 9.92329 7.0588 9.94091 7.30131C9.95852 7.54382 10.0601 7.77035 10.2254 7.93601C10.5434 8.29131 10.934 8.56181 11.3661 8.72599C12.4798 9.19393 13.6409 9.32556 14.8293 9.3476Z" fill="white" fill-opacity="0.5"/>
<path d="M2.34263 14.3872C2.35394 14.102 2.35166 13.8164 2.33581 13.5315C2.26799 12.6903 2.65503 12.1126 3.25916 11.6736C3.92046 11.2115 4.67023 10.9164 5.45235 10.8106C7.16193 10.4816 8.91821 10.569 10.5923 11.0665C11.2356 11.2352 11.8274 11.5804 12.3102 12.0685C12.4723 12.2335 12.5984 12.4352 12.6793 12.6591C12.7602 12.883 12.7939 13.1235 12.7779 13.3632C12.7304 14.2044 12.6896 15.0527 12.6626 15.8939C12.6625 15.9778 12.6433 16.0604 12.6066 16.1344C12.5699 16.2084 12.5168 16.2715 12.4521 16.3182C11.4029 17.1676 10.1636 17.7026 8.86023 17.8687C6.93189 18.1467 5.09903 17.8322 3.40785 16.7278C2.33601 16.0255 2.33601 16.0255 2.33601 14.687C2.33601 14.5919 2.336 14.4895 2.34283 14.387L2.34263 14.3872ZM7.74084 15.3162C8.60076 15.3298 9.45812 15.2116 10.2872 14.9652C10.8887 14.8203 11.4482 14.519 11.9167 14.0874C12.5209 13.4876 12.5074 12.8068 11.8828 12.2369C11.5465 11.9388 11.1589 11.7151 10.7422 11.5785C9.28374 11.0746 7.74071 10.9198 6.22096 11.1251C5.44741 11.1943 4.68999 11.402 3.97983 11.7395C3.58458 11.9139 3.23824 12.1961 2.97483 12.5583C2.81771 12.7571 2.73839 13.0139 2.75359 13.2746C2.76879 13.5352 2.87731 13.7793 3.05629 13.9554C3.40013 14.3311 3.82452 14.6099 4.29203 14.7672C5.40268 15.1671 6.57009 15.353 7.74064 15.3162H7.74084Z" fill="white" fill-opacity="0.5"/>
<path d="M0 6.29785C0.936988 7.46823 2.17273 7.88515 3.47648 8.10453C5.16994 8.38711 6.9015 8.23168 8.52819 7.65108C8.68409 7.59985 8.75231 7.59986 8.75231 7.81903C8.73866 8.36758 8.75231 8.91614 8.75231 9.46469C8.75231 9.56714 8.78621 9.71347 8.60283 9.67673C7.35345 9.40612 6.1789 9.82368 5.01098 10.1596C2.96726 10.752 1.39866 9.99856 0.149476 8.26514C0.0584563 8.15341 0.00576349 8.01143 0.000196261 7.8629L0 6.29785Z" fill="white" fill-opacity="0.5"/>
<path d="M13.498 15.5213C15.8678 15.9831 18.0066 15.5213 19.9416 13.8975C19.9416 14.5703 19.9484 15.2286 19.9348 15.887C19.9348 16.0186 19.8126 16.099 19.7311 16.1796C18.312 17.5035 16.6485 18.0302 14.7948 17.979C14.4238 17.9631 14.0553 17.9068 13.6949 17.811C13.5522 17.7819 13.4912 17.7086 13.4912 17.5331C13.5049 16.8598 13.498 16.1868 13.498 15.5213Z" fill="white" fill-opacity="0.5"/>
<path d="M0.0339014 9.17285C0.903452 10.0453 1.97944 10.6426 3.14362 10.8991C2.59142 11.3117 2.13391 11.8546 1.80596 12.4864C1.73814 12.6254 1.63621 12.5668 1.56157 12.523C0.971406 12.1816 0.466047 11.6924 0.0880783 11.0967C0.0431567 11.0179 0.0240161 10.9253 0.0337081 10.8334L0.0339014 9.17285Z" fill="white" fill-opacity="0.5"/>
<path d="M0.0680187 11.9297C0.491244 12.3826 0.97674 12.7626 1.50741 13.0562C1.5496 13.0803 1.58392 13.1177 1.60576 13.1635C1.62761 13.2092 1.63593 13.2611 1.6296 13.3121C1.64324 13.9192 1.66351 14.519 1.67715 15.1261C1.68397 15.3676 1.55496 15.2731 1.45304 15.2286C0.237564 14.6727 -0.0280567 13.9778 0.00682699 12.6464C0.0136478 12.427 0.0407354 12.2076 0.0680187 11.9297Z" fill="white" fill-opacity="0.5"/>
</svg>
