<svg width="28" height="18" viewBox="0 0 28 18" fill="none" xmlns="http://www.w3.org/2000/svg">
<g clip-path="url(#clip0_3320_253)">
<path d="M14.0186 6.64832C14.6678 5.91936 15.2997 5.22926 15.9138 4.51974C16.9229 3.33394 18.0723 2.43975 19.529 2.05096C22.5912 1.23452 25.908 3.19787 26.9608 6.48308C28.3034 10.643 26.136 15.0168 22.2315 15.9014C21.5471 14.3784 21.8853 14.8539 20.9729 12.8144C22.7976 12.0324 23.8459 11.9746 24.3286 9.80717C24.7849 7.74663 23.4511 5.55001 21.5471 5.21955C20.4941 5.03487 19.529 5.27786 18.7567 6.08458C17.8618 6.99822 14.782 10.332 13.966 11.2748C13.5448 11.7511 13.1587 12.2176 12.7551 12.6647C11.9478 13.5492 11.1932 14.4921 10.1929 15.1432C6.52524 17.5148 1.65544 15.1238 0.786771 10.5167C0.0409455 6.57056 2.21701 2.80908 5.77941 2.03153C5.91921 2.71339 6.37538 4.60325 6.50572 5.18976C5.65854 5.45043 5.26753 5.77627 4.62997 6.24981C3.76867 7.20996 3.39277 8.43672 3.68233 9.78774C4.28776 12.655 7.25352 13.7145 9.28918 11.8191C9.73668 11.4012 10.1315 10.9152 10.5527 10.4584C11.0002 9.98212 13.5623 7.13429 14.0186 6.64832Z" fill="white" fill-opacity="0.75"/>
<path d="M9.56798 5.12424C10.8277 5.12424 11.8488 4.10306 11.8488 2.84337C11.8488 1.58368 10.8277 0.5625 9.56798 0.5625C8.30829 0.5625 7.28711 1.58368 7.28711 2.84337C7.28711 4.10306 8.30829 5.12424 9.56798 5.12424Z" fill="white" fill-opacity="0.75"/>
<path d="M18.3004 17.3752C19.5601 17.3752 20.5813 16.354 20.5813 15.0943C20.5813 13.8347 19.5601 12.8135 18.3004 12.8135C17.0407 12.8135 16.0195 13.8347 16.0195 15.0943C16.0195 16.354 17.0407 17.3752 18.3004 17.3752Z" fill="white" fill-opacity="0.75"/>
</g>
<defs>
<clipPath id="clip0_3320_253">
<rect width="26.7188" height="16.8133" fill="white" transform="translate(0.640625 0.5625)"/>
</clipPath>
</defs>
</svg>
