<svg width="45" height="45" viewBox="0 0 45 45" fill="none" xmlns="http://www.w3.org/2000/svg">
<path d="M19.8299 1.55176H1.48584C0.665235 1.55176 0 2.21699 0 3.0376V19.0133C0 19.8339 0.665235 20.4991 1.48584 20.4991H19.8299C20.6505 20.4991 21.3158 19.8339 21.3158 19.0133V3.0376C21.3158 2.21699 20.6505 1.55176 19.8299 1.55176Z" fill="white" fill-opacity="0.75"/>
<path d="M43.5135 1.55176H25.1694C24.3488 1.55176 23.6836 2.21699 23.6836 3.0376V19.0133C23.6836 19.8339 24.3488 20.4991 25.1694 20.4991H43.5135C44.3341 20.4991 44.9994 19.8339 44.9994 19.0133V3.0376C44.9994 2.21699 44.3341 1.55176 43.5135 1.55176Z" fill="white" fill-opacity="0.75"/>
<path d="M19.8299 22.8672H1.48584C0.665235 22.8672 0 23.5324 0 24.353V40.3287C0 41.1493 0.665235 41.8146 1.48584 41.8146H19.8299C20.6505 41.8146 21.3158 41.1493 21.3158 40.3287V24.353C21.3158 23.5324 20.6505 22.8672 19.8299 22.8672Z" fill="white" fill-opacity="0.75"/>
<path d="M43.5135 22.8672H25.1694C24.3488 22.8672 23.6836 23.5324 23.6836 24.353V40.3287C23.6836 41.1493 24.3488 41.8146 25.1694 41.8146H43.5135C44.3341 41.8146 44.9994 41.1493 44.9994 40.3287V24.353C44.9994 23.5324 44.3341 22.8672 43.5135 22.8672Z" fill="white" fill-opacity="0.75"/>
</svg>
