<svg width="45" height="45" viewBox="0 0 45 45" fill="none" xmlns="http://www.w3.org/2000/svg">
<g clip-path="url(#clip0_3329_635)">
<path d="M10.4365 28.4869V11.8574H3.75918C3.28244 11.8574 2.81037 11.9513 2.36992 12.1337C1.92947 12.3162 1.52926 12.5836 1.19216 12.9207C0.855051 13.2578 0.587648 13.658 0.405215 14.0984C0.222781 14.5389 0.128891 15.011 0.128906 15.4877V38.5576C0.128914 39.5204 0.511391 40.4438 1.1922 41.1246C1.87301 41.8054 2.79638 42.1879 3.75918 42.1879H30.6204C31.5832 42.1878 32.5065 41.8053 33.1873 41.1245C33.8681 40.4437 34.2506 39.5204 34.2507 38.5576V32.1172H14.0668C13.104 32.1172 12.1806 31.7347 11.4998 31.0539C10.819 30.3731 10.4365 29.4497 10.4365 28.4869Z" fill="white" fill-opacity="0.75"/>
<path d="M41.3704 1.34375H14.5092C14.0324 1.34374 13.5604 1.43762 13.1199 1.62006C12.6795 1.80249 12.2793 2.0699 11.9422 2.407C11.6051 2.74411 11.3376 3.14431 11.1552 3.58476C10.9728 4.02521 10.8789 4.49729 10.8789 4.97403V28.0439C10.8789 29.0067 11.2614 29.9301 11.9422 30.6109C12.623 31.2917 13.5464 31.6742 14.5092 31.6742H41.3704C42.3332 31.6741 43.2565 31.2916 43.9373 30.6109C44.6181 29.9301 45.0006 29.0067 45.0007 28.0439V4.97403C45.0007 4.01122 44.6182 3.08785 43.9374 2.40704C43.2566 1.72623 42.3332 1.34376 41.3704 1.34375Z" fill="white" fill-opacity="0.75"/>
</g>
<defs>
<clipPath id="clip0_3329_635">
<rect width="45" height="45" fill="white"/>
</clipPath>
</defs>
</svg>
