<svg width="20" height="17" viewBox="0 0 20 17" fill="none" xmlns="http://www.w3.org/2000/svg">
<path d="M6.40171 7.12397C6.49718 7.08535 6.59652 7.05828 6.69754 7.04349L6.85413 6.79176C7.06005 6.46063 7.0848 6.03674 6.91861 5.68089L6.68761 5.18555C6.13955 5.22326 5.61103 5.41707 5.15625 5.74694L5.27007 5.78772C5.83816 5.99235 6.2665 6.49816 6.40171 7.12397Z" fill="white" fill-opacity="0.3"/>
<path d="M7.71808 7.32012L7.99404 7.26057C8.35789 7.18243 8.6549 6.90147 8.77226 6.52396L8.93575 5.99957C8.52307 5.61105 8.02148 5.34741 7.48235 5.23535L7.53573 5.3503C7.8026 5.92504 7.77212 6.60697 7.45508 7.15158C7.54836 7.19705 7.63658 7.25353 7.71808 7.32012Z" fill="white" fill-opacity="0.3"/>
<path d="M5.63756 7.90061C5.67999 7.80083 5.73269 7.70627 5.79482 7.61911L5.73926 7.32335C5.66635 6.9334 5.4042 6.61508 5.05196 6.48931L4.56267 6.31445C4.20016 6.75656 3.954 7.29412 3.84961 7.87174L3.95686 7.81454C4.49313 7.52907 5.12908 7.56155 5.63756 7.90061Z" fill="white" fill-opacity="0.3"/>
<path d="M4.36493 10.2423C4.55536 9.63332 5.02748 9.17407 5.6114 9.02953C5.57537 8.92721 5.55011 8.82074 5.53631 8.71247L5.30143 8.54465C4.99246 8.32396 4.59695 8.29743 4.26492 8.47554L3.80273 8.72312C3.83792 9.31049 4.01893 9.87711 4.32688 10.3643L4.36493 10.2423Z" fill="white" fill-opacity="0.3"/>
<path d="M6.07509 9.67969L5.79913 9.73924C5.43528 9.81737 5.13827 10.0983 5.02091 10.4758L4.85742 11.0002C5.2701 11.3888 5.77169 11.6524 6.31081 11.7645L6.25744 11.6495C5.99057 11.0748 6.02105 10.3928 6.33809 9.84823C6.24481 9.80276 6.15659 9.74627 6.07509 9.67969Z" fill="white" fill-opacity="0.3"/>
<path d="M7.38988 9.87598C7.29441 9.91459 7.19507 9.94166 7.09405 9.95646L6.93746 10.2082C6.73154 10.5393 6.70679 10.9632 6.87297 11.319L7.10398 11.8144C7.65204 11.7767 8.18056 11.5829 8.63534 11.253L8.52152 11.2122C7.95342 11.0076 7.52508 10.5018 7.38988 9.87598Z" fill="white" fill-opacity="0.3"/>
<path d="M16.5321 8.28761L16.767 8.45543C17.0761 8.67558 17.4713 8.70193 17.8035 8.52454L18.2657 8.27696C18.2305 7.68959 18.0495 7.12296 17.7416 6.63574L17.7035 6.75773C17.5131 7.36676 17.041 7.82601 16.457 7.97055C16.4931 8.07287 16.5183 8.17934 16.5321 8.28761Z" fill="white" fill-opacity="0.3"/>
<path d="M15.6653 9.87598C15.5698 9.91459 15.4705 9.94166 15.3694 9.95646L15.2128 10.2082C15.0069 10.5393 14.9822 10.9632 15.1484 11.319L15.3794 11.8144C15.9274 11.7767 16.456 11.5829 16.9107 11.253L16.7969 11.2122C16.2288 11.0076 15.8005 10.5018 15.6653 9.87598Z" fill="white" fill-opacity="0.3"/>
<path d="M17.3411 9.38111C17.0192 9.38021 16.704 9.28259 16.431 9.09961C16.3886 9.19958 16.3357 9.29414 16.2734 9.38148L16.329 9.67724C16.4019 10.0672 16.6641 10.3855 17.0163 10.5113L17.5056 10.6861C17.8681 10.244 18.1143 9.70647 18.2186 9.12884L18.1114 9.18605C17.8723 9.31435 17.6085 9.38111 17.3411 9.38111Z" fill="white" fill-opacity="0.3"/>
<path d="M3.3055 4.80435L4.68481 3.32609H9.08035L10.4597 4.43478H11.6093L12.9886 3.32609L17.3572 3.32609L19.2975 5.17391H20V3.69565C20 3.08338 19.5368 2.58696 18.9655 2.58696L2.06897 2.58696V1.1087C2.06897 0.496423 1.60577 0 1.03448 0L0 0L0 0.73913H1.03448C1.22491 0.73913 1.37931 0.904605 1.37931 1.1087V7.3913H0.689655V8.13043H1.37931V9.23913H1.03448V12.1957H1.37931V13.3043H0.689655V14.0435H1.37931V17H2.06897L2.06897 14.413H18.9655C19.5368 14.413 20 13.9166 20 13.3043V11.8261H19.2975L17.3572 13.6739H12.9886L11.6093 12.5652H10.4597L9.08035 13.6739H4.68481L3.3055 12.1957H2.06897V11.4565H3.59106L4.97037 12.9348H8.85069L10.23 11.8261H11.839L13.2183 12.9348H17.0952L19.0345 11.087H20V5.91304H19.0345L17.0942 4.06522H13.2183L11.839 5.17391H10.23L8.85069 4.06522H4.97037L3.59106 5.54348H2.06897V4.80435H3.3055ZM15.1724 4.43478C17.2673 4.43478 18.9655 6.25482 18.9655 8.5C18.9655 10.7452 17.2673 12.5652 15.1724 12.5652C13.0775 12.5652 11.3793 10.7452 11.3793 8.5C11.3818 6.2559 13.0785 4.43749 15.1724 4.43478ZM6.89655 4.43478C8.99145 4.43478 10.6897 6.25482 10.6897 8.5C10.6897 10.7452 8.99145 12.5652 6.89655 12.5652C4.80166 12.5652 3.10345 10.7452 3.10345 8.5C3.10597 6.2559 4.80267 4.43749 6.89655 4.43478Z" fill="white" fill-opacity="0.3"/>
<path d="M3.3055 4.80435L4.68481 3.32609H9.08035L10.4597 4.43478H11.6093L12.9886 3.32609L17.3572 3.32609L19.2975 5.17391H20V3.69565C20 3.08338 19.5368 2.58696 18.9655 2.58696L2.06897 2.58696V1.1087C2.06897 0.496423 1.60577 0 1.03448 0L0 0L0 0.73913H1.03448C1.22491 0.73913 1.37931 0.904605 1.37931 1.1087V7.3913H0.689655V8.13043H1.37931V9.23913H1.03448V12.1957H1.37931V13.3043H0.689655V14.0435H1.37931V17H2.06897L2.06897 14.413H18.9655C19.5368 14.413 20 13.9166 20 13.3043V11.8261H19.2975L17.3572 13.6739H12.9886L11.6093 12.5652H10.4597L9.08035 13.6739H4.68481L3.3055 12.1957H2.06897V11.4565H3.59106L4.97037 12.9348H8.85069L10.23 11.8261H11.839L13.2183 12.9348H17.0952L19.0345 11.087H20V5.91304H19.0345L17.0942 4.06522H13.2183L11.839 5.17391H10.23L8.85069 4.06522H4.97037L3.59106 5.54348H2.06897V4.80435H3.3055ZM15.1724 4.43478C17.2673 4.43478 18.9655 6.25482 18.9655 8.5C18.9655 10.7452 17.2673 12.5652 15.1724 12.5652C13.0775 12.5652 11.3793 10.7452 11.3793 8.5C11.3818 6.2559 13.0785 4.43749 15.1724 4.43478ZM6.89655 4.43478C8.99145 4.43478 10.6897 6.25482 10.6897 8.5C10.6897 10.7452 8.99145 12.5652 6.89655 12.5652C4.80166 12.5652 3.10345 10.7452 3.10345 8.5C3.10597 6.2559 4.80267 4.43749 6.89655 4.43478Z" fill="white" fill-opacity="0.3"/>
<path d="M14.3505 9.67969L14.0745 9.73924C13.7107 9.81737 13.4137 10.0983 13.2963 10.4758L13.1328 11.0002C13.5455 11.3888 14.0471 11.6524 14.5862 11.7645L14.5328 11.6495C14.266 11.0748 14.2964 10.3928 14.6135 9.84823C14.5202 9.80276 14.432 9.74627 14.3505 9.67969Z" fill="white" fill-opacity="0.3"/>
<path d="M9.0657 9.38111C8.74377 9.38021 8.42858 9.28259 8.15564 9.09961C8.11321 9.19958 8.06034 9.29414 7.99805 9.38148L8.05361 9.67724C8.12652 10.0672 8.38867 10.3855 8.74091 10.5113L9.2302 10.6861C9.59271 10.244 9.83887 9.70647 9.94326 9.12884L9.83601 9.18605C9.59692 9.31435 9.33308 9.38111 9.0657 9.38111Z" fill="white" fill-opacity="0.3"/>
<path d="M12.6423 10.2423C12.8327 9.63332 13.3048 9.17407 13.8887 9.02953C13.8527 8.92721 13.8275 8.82074 13.8137 8.71247L13.5788 8.54465C13.2698 8.32396 12.8743 8.29743 12.5423 8.47554L12.0801 8.72312C12.1153 9.31049 12.2963 9.87711 12.6042 10.3643L12.6423 10.2423Z" fill="white" fill-opacity="0.3"/>
<path d="M15.9954 7.32012L16.2714 7.26057C16.6352 7.18243 16.9322 6.90147 17.0496 6.52396L17.2131 5.99957C16.8004 5.61105 16.2988 5.34741 15.7597 5.23535L15.8131 5.3503C16.0799 5.92504 16.0495 6.60697 15.7324 7.15158C15.8257 7.19705 15.9139 7.25353 15.9954 7.32012Z" fill="white" fill-opacity="0.3"/>
<path d="M8.25478 8.28761L8.48966 8.45543C8.7988 8.67558 9.19397 8.70193 9.52617 8.52454L9.98836 8.27696C9.95317 7.68959 9.77216 7.12296 9.46421 6.63574L9.42616 6.75773C9.23573 7.36676 8.76361 7.82601 8.17969 7.97055C8.21572 8.07287 8.24098 8.17934 8.25478 8.28761Z" fill="white" fill-opacity="0.3"/>
<path d="M13.9149 7.90061C13.9573 7.80083 14.01 7.70627 14.0722 7.61911L14.0166 7.32335C13.9437 6.9334 13.6815 6.61508 13.3293 6.48931L12.84 6.31445C12.4775 6.75656 12.2313 7.29412 12.127 7.87174L12.2342 7.81454C12.7705 7.52907 13.4064 7.56155 13.9149 7.90061Z" fill="white" fill-opacity="0.3"/>
<path d="M14.6791 7.12397C14.7745 7.08535 14.8739 7.05828 14.9749 7.04349L15.1315 6.79176C15.3374 6.46063 15.3621 6.03674 15.196 5.68089L14.965 5.18555C14.4169 5.22326 13.8884 5.41707 13.4336 5.74694L13.5474 5.78772C14.1155 5.99235 14.5438 6.49816 14.6791 7.12397Z" fill="white" fill-opacity="0.3"/>
<ellipse cx="6.96401" cy="8.39076" rx="1.07143" ry="1.1476" fill="white" fill-opacity="0.3"/>
<ellipse cx="15.1789" cy="8.39076" rx="1.07143" ry="1.1476" fill="white" fill-opacity="0.3"/>
</svg>
