<svg width="30" height="30" viewBox="0 0 30 30" fill="none" xmlns="http://www.w3.org/2000/svg">
<path d="M14.7937 0.0405674C14.7788 0.0686913 14.8185 0.591349 14.9028 1.50072C14.9747 2.28119 15.0342 2.94682 15.0366 2.98197C15.0366 3.04291 15.0366 3.04291 14.8085 3.05697C13.668 3.12025 13.3408 3.15072 12.6317 3.25853C10.0259 3.66166 7.73994 4.63666 5.76391 6.18822C5.3573 6.50931 4.43003 7.38588 4.09284 7.77025C2.12424 10.0132 0.963911 12.6827 0.70358 15.5749C0.663911 16.0038 0.663911 17.0562 0.70358 17.4734C0.74325 17.914 0.830026 18.4742 0.862258 18.5117C0.877134 18.5281 0.906886 18.5398 0.931679 18.5351C0.953993 18.5304 1.49449 18.1132 2.1292 17.607C2.76391 17.1031 3.29449 16.6882 3.30937 16.6882C3.32176 16.6882 4.00606 16.8945 4.83168 17.1452C5.65482 17.396 6.34656 17.6023 6.36639 17.6023C6.43829 17.6023 6.45565 17.5296 6.42837 17.321C6.39366 17.0421 6.39366 16.0765 6.43085 15.739C6.70606 13.2077 8.02507 11.0773 10.1275 9.76244C11.4267 8.94916 13.0259 8.46634 14.7813 8.35384L15.0366 8.33744L15.0242 8.44056C15.0168 8.49681 14.9375 9.28197 14.8507 10.1843C14.7366 11.3656 14.6995 11.832 14.7193 11.8531C14.7714 11.9117 14.8284 11.8812 15.1036 11.6421C15.9614 10.9015 17.035 9.57259 17.9102 8.16869C18.3937 7.39525 19.0532 6.06635 19.0532 5.86478C19.0532 5.839 19.0185 5.7101 18.9763 5.5765C18.6168 4.42572 17.5309 2.764 16.1375 1.21947C15.8102 0.856192 14.9102 0.000722885 14.8581 0.000722885C14.8333 0.000722885 14.8061 0.0194721 14.7937 0.0405674Z" fill="white" fill-opacity="0.75"/>
<path d="M20.4653 4.15944C20.443 4.18522 20.4802 4.4735 20.6612 5.58209C20.7851 6.34616 20.8917 6.99069 20.8967 7.01178C20.9041 7.03991 20.5496 7.34225 19.6818 8.05006C19.0074 8.5985 18.457 9.06256 18.457 9.07897C18.457 9.12819 18.5289 9.17506 18.824 9.31334C20.2769 10.0001 21.5959 11.1532 22.4413 12.4798C23.0413 13.4196 23.4033 14.4157 23.5694 15.5852C23.6116 15.8829 23.6116 16.9751 23.5694 17.2962C23.4207 18.4235 23.1182 19.3727 22.5703 20.4321C22.4066 20.7462 22.3397 20.8563 22.3174 20.8399C22.0397 20.6313 19.362 18.7727 19.3372 18.7727C19.2306 18.7727 19.2355 18.8782 19.362 19.4079C19.7959 21.1938 21.2636 24.0532 22.367 25.2579C22.5157 25.4196 22.5529 25.436 23.0562 25.5344C24.3281 25.7876 26.3562 25.7501 28.2876 25.4383C28.9422 25.3329 29.9066 25.1149 29.9661 25.0587C30.038 24.9907 29.9413 24.9368 28.538 24.2829L27.1174 23.6196L27.2513 23.3923C27.457 23.0524 27.886 22.2344 28.0496 21.8712C29.5992 18.4493 29.6661 14.9055 28.2479 11.5751C26.8694 8.33131 24.0678 5.55162 20.8868 4.2649C20.6959 4.18756 20.5298 4.12428 20.5174 4.12428C20.505 4.12428 20.4827 4.14069 20.4653 4.15944Z" fill="white" fill-opacity="0.75"/>
<path d="M5.1227 18.3894C4.25989 18.4433 3.80122 18.4925 3.38717 18.5769C3.20865 18.6144 3.19626 18.6214 3.04502 18.7714C2.30122 19.505 1.50783 20.8105 0.82849 22.4183C0.516094 23.1542 0.223532 24.0167 0.0524573 24.7081C-0.00456743 24.9401 -0.0120054 24.9894 0.0152673 25.0222C0.035102 25.0409 0.0673334 25.0526 0.0921268 25.048C0.114441 25.0409 0.694606 24.6589 1.38138 24.1948C2.06816 23.7308 2.64337 23.344 2.66072 23.337C2.68056 23.3253 2.77477 23.4425 2.93097 23.6651C4.45824 25.8683 6.34998 27.5065 8.61857 28.594C11.7177 30.0776 15.3772 30.3987 18.8781 29.494C20.7351 29.0136 22.4929 28.1745 23.8244 27.1315C23.988 27.0026 24.0227 26.937 23.9607 26.8901C23.9285 26.8644 21.1541 25.9456 21.1144 25.9456C21.0847 25.9456 21.1095 26.0394 20.7301 24.4456C20.5467 23.6651 20.383 23.0042 20.3706 22.9737C20.3582 22.9456 20.3285 22.9222 20.3086 22.9222C20.2863 22.9222 20.1599 22.9948 20.0285 23.0839C18.821 23.8995 17.4004 24.4198 15.8582 24.612C15.5533 24.6495 14.7822 24.6706 14.3954 24.6519C11.8938 24.5276 9.62766 23.3183 7.94915 21.2112C7.64419 20.8292 7.52022 20.6464 7.54254 20.6253C7.55493 20.6136 8.30617 20.2737 9.21361 19.8683C10.8177 19.1511 10.8624 19.13 10.8624 19.0667C10.8624 19.0081 10.8475 18.9964 10.726 18.9565C9.96981 18.7105 8.80204 18.5206 7.41609 18.4222C7.07146 18.3964 5.38303 18.373 5.1227 18.3894Z" fill="white" fill-opacity="0.75"/>
</svg>
