<svg width="20" height="20" viewBox="0 0 20 20" fill="none" xmlns="http://www.w3.org/2000/svg">
<path d="M18.9996 16.9996L13.8496 11.8496C14.8025 10.4015 15.1841 8.65141 14.9206 6.93809C14.6572 5.22477 13.7674 3.67014 12.4235 2.5752C11.0797 1.48026 9.37733 0.922889 7.64611 1.01101C5.91489 1.09913 4.27795 1.82647 3.05221 3.05221C1.82647 4.27795 1.09913 5.91489 1.01101 7.64611C0.922889 9.37733 1.48026 11.0797 2.5752 12.4235C3.67014 13.7674 5.22477 14.6572 6.93809 14.9206C8.65141 15.1841 10.4015 14.8025 11.8496 13.8496L16.9996 18.9996L18.9996 16.9996ZM3.49964 7.99964C3.49964 7.10962 3.76356 6.23959 4.25803 5.49957C4.75249 4.75955 5.4553 4.18278 6.27756 3.84218C7.09983 3.50159 8.00463 3.41247 8.87755 3.58611C9.75046 3.75974 10.5523 4.18832 11.1816 4.81766C11.811 5.447 12.2395 6.24882 12.4132 7.12173C12.5868 7.99465 12.4977 8.89945 12.1571 9.72171C11.8165 10.544 11.2397 11.2468 10.4997 11.7413C9.75968 12.2357 8.88966 12.4996 7.99964 12.4996C6.80617 12.4996 5.66157 12.0255 4.81766 11.1816C3.97375 10.3377 3.49964 9.19311 3.49964 7.99964Z" fill="#949494"/>
</svg>
